<svg width="24" height="24" viewBox="0 0 24 24" fill="none" xmlns="http://www.w3.org/2000/svg">
<g clipPath="url(#clip0_561_1441)">
<path d="M24 8V6C24 3.24 21.76 1 19 1H5C2.24 1 0 3.24 0 6V8H24ZM19.5 3C20.33 3 21 3.67 21 4.5C21 5.33 20.33 6 19.5 6C18.67 6 18 5.33 18 4.5C18 3.67 18.67 3 19.5 3ZM15.5 3C16.33 3 17 3.67 17 4.5C17 5.33 16.33 6 15.5 6C14.67 6 14 5.33 14 4.5C14 3.67 14.67 3 15.5 3ZM11.5 3C12.33 3 13 3.67 13 4.5C13 5.33 12.33 6 11.5 6C10.67 6 10 5.33 10 4.5C10 3.67 10.67 3 11.5 3ZM24 10V18C24 20.76 21.76 23 19 23H5C2.24 23 0 20.76 0 18V10H24Z" fill="#FF9748"/>
</g>
<defs>
<clipPath id="clip0_561_1441">
<rect width="24" height="24" fill="white"/>
</clipPath>
</defs>
</svg>
