<svg width="53" height="34" viewBox="0 0 53 34" fill="none" xmlns="http://www.w3.org/2000/svg">
<rect width="53" height="34" rx="6" fill="#010101"/>
<path d="M13.9099 21.768C14.3525 21.768 14.7339 21.7173 15.0539 21.616C15.3739 21.5147 15.6352 21.3733 15.8379 21.192C16.0459 21.0053 16.1979 20.7867 16.2939 20.536C16.3899 20.28 16.4379 20 16.4379 19.696C16.4379 19.104 16.2272 18.6373 15.8059 18.296C15.3845 17.9493 14.7525 17.776 13.9099 17.776H11.4299V21.768H13.9099ZM11.4299 12.76V16.672H13.4779C13.9152 16.672 14.2939 16.624 14.6139 16.528C14.9392 16.432 15.2059 16.2987 15.4139 16.128C15.6272 15.9573 15.7845 15.752 15.8859 15.512C15.9872 15.2667 16.0379 15 16.0379 14.712C16.0379 14.0347 15.8352 13.5413 15.4299 13.232C15.0245 12.9173 14.3952 12.76 13.5419 12.76H11.4299ZM13.5419 11.536C14.2459 11.536 14.8512 11.6053 15.3579 11.744C15.8699 11.8827 16.2885 12.08 16.6139 12.336C16.9445 12.592 17.1872 12.9067 17.3419 13.28C17.4965 13.648 17.5739 14.064 17.5739 14.528C17.5739 14.8107 17.5285 15.0827 17.4379 15.344C17.3525 15.6 17.2219 15.84 17.0459 16.064C16.8699 16.288 16.6459 16.4907 16.3739 16.672C16.1072 16.848 15.7925 16.992 15.4299 17.104C16.2725 17.264 16.9045 17.5653 17.3259 18.008C17.7525 18.4453 17.9659 19.0213 17.9659 19.736C17.9659 20.2213 17.8752 20.664 17.6939 21.064C17.5179 21.464 17.2565 21.808 16.9099 22.096C16.5685 22.384 16.1472 22.608 15.6459 22.768C15.1445 22.9227 14.5739 23 13.9339 23H9.88588V11.536H13.5419ZM24.1606 19.352C23.5046 19.3733 22.9446 19.4267 22.4806 19.512C22.022 19.592 21.646 19.6987 21.3526 19.832C21.0646 19.9653 20.854 20.1227 20.7206 20.304C20.5926 20.4853 20.5286 20.688 20.5286 20.912C20.5286 21.1253 20.5633 21.3093 20.6326 21.464C20.702 21.6187 20.7953 21.7467 20.9126 21.848C21.0353 21.944 21.1766 22.016 21.3366 22.064C21.502 22.1067 21.678 22.128 21.8646 22.128C22.1153 22.128 22.3446 22.104 22.5526 22.056C22.7606 22.0027 22.9553 21.928 23.1366 21.832C23.3233 21.736 23.4993 21.6213 23.6646 21.488C23.8353 21.3547 24.0006 21.2027 24.1606 21.032V19.352ZM19.5606 16.04C20.0086 15.608 20.4913 15.2853 21.0086 15.072C21.526 14.8587 22.0993 14.752 22.7286 14.752C23.182 14.752 23.5846 14.8267 23.9366 14.976C24.2886 15.1253 24.5846 15.3333 24.8246 15.6C25.0646 15.8667 25.246 16.1893 25.3686 16.568C25.4913 16.9467 25.5526 17.3627 25.5526 17.816V23H24.9206C24.782 23 24.6753 22.9787 24.6006 22.936C24.526 22.888 24.4673 22.7973 24.4246 22.664L24.2646 21.896C24.0513 22.0933 23.8433 22.2693 23.6406 22.424C23.438 22.5733 23.2246 22.7013 23.0006 22.808C22.7766 22.9093 22.5366 22.9867 22.2806 23.04C22.03 23.0987 21.75 23.128 21.4406 23.128C21.126 23.128 20.83 23.0853 20.5526 23C20.2753 22.9093 20.0326 22.776 19.8246 22.6C19.622 22.424 19.4593 22.2027 19.3366 21.936C19.2193 21.664 19.1606 21.344 19.1606 20.976C19.1606 20.656 19.2486 20.3493 19.4246 20.056C19.6006 19.7573 19.886 19.4933 20.2806 19.264C20.6753 19.0347 21.19 18.848 21.8246 18.704C22.4593 18.5547 23.238 18.4693 24.1606 18.448V17.816C24.1606 17.1867 24.0246 16.712 23.7526 16.392C23.4806 16.0667 23.0833 15.904 22.5606 15.904C22.2086 15.904 21.9126 15.9493 21.6726 16.04C21.438 16.1253 21.2326 16.224 21.0566 16.336C20.886 16.4427 20.7366 16.5413 20.6086 16.632C20.486 16.7173 20.3633 16.76 20.2406 16.76C20.1446 16.76 20.062 16.736 19.9926 16.688C19.9233 16.6347 19.8646 16.5707 19.8166 16.496L19.5606 16.04ZM32.4418 16.232C32.3778 16.3493 32.2791 16.408 32.1458 16.408C32.0658 16.408 31.9751 16.3787 31.8738 16.32C31.7724 16.2613 31.6471 16.1973 31.4978 16.128C31.3538 16.0533 31.1804 15.9867 30.9778 15.928C30.7751 15.864 30.5351 15.832 30.2578 15.832C30.0178 15.832 29.8018 15.864 29.6098 15.928C29.4178 15.9867 29.2524 16.0693 29.1138 16.176C28.9804 16.2827 28.8764 16.408 28.8018 16.552C28.7324 16.6907 28.6978 16.8427 28.6978 17.008C28.6978 17.216 28.7564 17.3893 28.8738 17.528C28.9964 17.6667 29.1564 17.7867 29.3538 17.888C29.5511 17.9893 29.7751 18.08 30.0258 18.16C30.2764 18.2347 30.5324 18.3173 30.7938 18.408C31.0604 18.4933 31.3191 18.5893 31.5698 18.696C31.8204 18.8027 32.0444 18.936 32.2418 19.096C32.4391 19.256 32.5964 19.4533 32.7138 19.688C32.8364 19.9173 32.8978 20.1947 32.8978 20.52C32.8978 20.8933 32.8311 21.24 32.6978 21.56C32.5644 21.8747 32.3671 22.1493 32.1058 22.384C31.8444 22.6133 31.5244 22.7947 31.1458 22.928C30.7671 23.0613 30.3298 23.128 29.8338 23.128C29.2684 23.128 28.7564 23.0373 28.2978 22.856C27.8391 22.6693 27.4498 22.432 27.1298 22.144L27.4658 21.6C27.5084 21.5307 27.5591 21.4773 27.6178 21.44C27.6764 21.4027 27.7511 21.384 27.8418 21.384C27.9378 21.384 28.0391 21.4213 28.1458 21.496C28.2524 21.5707 28.3804 21.6533 28.5298 21.744C28.6844 21.8347 28.8711 21.9173 29.0898 21.992C29.3084 22.0667 29.5804 22.104 29.9058 22.104C30.1831 22.104 30.4258 22.0693 30.6337 22C30.8418 21.9253 31.0151 21.8267 31.1538 21.704C31.2924 21.5813 31.3938 21.44 31.4578 21.28C31.5271 21.12 31.5618 20.9493 31.5618 20.768C31.5618 20.544 31.5004 20.36 31.3778 20.216C31.2604 20.0667 31.1031 19.9413 30.9058 19.84C30.7084 19.7333 30.4818 19.6427 30.2258 19.568C29.9751 19.488 29.7164 19.4053 29.4498 19.32C29.1884 19.2347 28.9298 19.1387 28.6738 19.032C28.4231 18.92 28.1991 18.7813 28.0018 18.616C27.8044 18.4507 27.6444 18.248 27.5218 18.008C27.4044 17.7627 27.3458 17.4667 27.3458 17.12C27.3458 16.8107 27.4098 16.5147 27.5378 16.232C27.6658 15.944 27.8524 15.6933 28.0978 15.48C28.3431 15.2613 28.6444 15.088 29.0018 14.96C29.3591 14.832 29.7671 14.768 30.2258 14.768C30.7591 14.768 31.2364 14.8533 31.6578 15.024C32.0844 15.1893 32.4524 15.4187 32.7618 15.712L32.4418 16.232ZM36.1476 14.896V23H34.7236V14.896H36.1476ZM36.4516 12.352C36.4516 12.4907 36.4223 12.6213 36.3636 12.744C36.3103 12.8613 36.2356 12.968 36.1396 13.064C36.049 13.1547 35.9396 13.2267 35.8116 13.28C35.689 13.3333 35.5583 13.36 35.4196 13.36C35.281 13.36 35.1503 13.3333 35.0276 13.28C34.9103 13.2267 34.8063 13.1547 34.7156 13.064C34.625 12.968 34.553 12.8613 34.4996 12.744C34.4463 12.6213 34.4196 12.4907 34.4196 12.352C34.4196 12.2133 34.4463 12.0827 34.4996 11.96C34.553 11.832 34.625 11.7227 34.7156 11.632C34.8063 11.536 34.9103 11.4613 35.0276 11.408C35.1503 11.3547 35.281 11.328 35.4196 11.328C35.5583 11.328 35.689 11.3547 35.8116 11.408C35.9396 11.4613 36.049 11.536 36.1396 11.632C36.2356 11.7227 36.3103 11.832 36.3636 11.96C36.4223 12.0827 36.4516 12.2133 36.4516 12.352ZM44.1274 16.336C44.0847 16.3947 44.042 16.44 43.9994 16.472C43.9567 16.504 43.898 16.52 43.8234 16.52C43.7434 16.52 43.6554 16.488 43.5594 16.424C43.4634 16.3547 43.3434 16.28 43.1994 16.2C43.0607 16.12 42.8874 16.048 42.6794 15.984C42.4767 15.9147 42.226 15.88 41.9274 15.88C41.5274 15.88 41.1754 15.952 40.8714 16.096C40.5674 16.2347 40.3114 16.4373 40.1034 16.704C39.9007 16.9707 39.746 17.2933 39.6394 17.672C39.538 18.0507 39.4874 18.4747 39.4874 18.944C39.4874 19.4347 39.5434 19.872 39.6554 20.256C39.7674 20.6347 39.9247 20.9547 40.1274 21.216C40.3354 21.472 40.5834 21.6693 40.8714 21.808C41.1647 21.9413 41.4927 22.008 41.8554 22.008C42.202 22.008 42.4874 21.968 42.7114 21.888C42.9354 21.8027 43.1194 21.7093 43.2634 21.608C43.4127 21.5067 43.5354 21.416 43.6314 21.336C43.7327 21.2507 43.8314 21.208 43.9274 21.208C44.0447 21.208 44.1354 21.2533 44.1994 21.344L44.5994 21.864C44.4234 22.0827 44.2234 22.2693 43.9994 22.424C43.7754 22.5787 43.5327 22.7093 43.2714 22.816C43.0154 22.9173 42.746 22.992 42.4634 23.04C42.1807 23.088 41.8927 23.112 41.5994 23.112C41.0927 23.112 40.6207 23.0187 40.1834 22.832C39.7514 22.6453 39.3754 22.376 39.0554 22.024C38.7354 21.6667 38.4847 21.2293 38.3034 20.712C38.122 20.1947 38.0314 19.6053 38.0314 18.944C38.0314 18.3413 38.114 17.784 38.2794 17.272C38.45 16.76 38.6954 16.32 39.0154 15.952C39.3407 15.5787 39.738 15.288 40.2074 15.08C40.682 14.872 41.226 14.768 41.8394 14.768C42.41 14.768 42.9114 14.8613 43.3434 15.048C43.7807 15.2293 44.1674 15.488 44.5034 15.824L44.1274 16.336Z" fill="white"/>
</svg>
