<svg width="24" height="24" viewBox="0 0 24 24" fill="none" xmlns="http://www.w3.org/2000/svg">
<g clip-path="url(#clip0_561_1457)">
<path d="M1.42031 0.09375C0.792188 0.318748 0.309375 0.80625 0.0890625 1.44375C0.0046875 1.69219 0 1.95 0 9.89062C0 17.8312 0.0046875 18.0891 0.0890625 18.3375C0.309375 18.9844 0.796875 19.4719 1.43906 19.6922C1.69219 19.7766 1.87969 19.7812 7.47656 19.7812H13.2469L13.3641 19.6312C13.5516 19.3828 13.5891 19.2984 13.5938 19.1391C13.5938 18.9328 11.5031 2.01094 11.4328 1.6875C11.2734 0.923437 10.6969 0.295311 9.95156 0.0703125C9.75938 0.00937462 9.09844 0 5.69531 0.00468636C1.88906 0.00468636 1.65 0.014061 1.42031 0.09375ZM7.38281 5.12812C7.54688 5.23594 7.62656 5.325 7.69219 5.48437C7.77188 5.66719 9.14062 12.5625 9.14062 12.7687C9.14062 12.9891 8.99531 13.2422 8.8125 13.3359C8.48906 13.5 8.03438 13.3687 7.89844 13.0687C7.85625 12.9844 7.725 12.4078 7.60313 11.7891L7.37813 10.6641H6.35156H5.325L5.1 11.7891C4.97813 12.4078 4.84688 12.9844 4.80469 13.0687C4.66875 13.3687 4.21406 13.5 3.89063 13.3359C3.70781 13.2422 3.5625 12.9891 3.5625 12.7687C3.5625 12.5766 4.92656 5.68594 5.00625 5.48437C5.07188 5.32031 5.2875 5.11406 5.43281 5.08125C5.49844 5.06719 5.57812 5.04844 5.60156 5.03437C5.62969 5.025 6.00938 5.025 6.44531 5.02969C7.14375 5.03906 7.26563 5.04844 7.38281 5.12812Z" fill="#FF9748"/>
<path d="M6.16406 6.47812C6.14062 6.55312 5.625 9.15 5.625 9.19687C5.625 9.22031 5.95312 9.23438 6.35156 9.23438C6.90469 9.23438 7.07812 9.22031 7.07812 9.17344C7.07344 9.14531 6.95156 8.51719 6.80625 7.78125L6.53438 6.44531L6.36094 6.43125C6.24844 6.42188 6.17813 6.43594 6.16406 6.47812Z" fill="#FF9748"/>
<path d="M13.1488 4.41565C13.2238 4.86565 14.9535 18.8719 14.9535 19.05C14.9535 19.3782 14.8645 19.7297 14.7051 20.0344C14.6066 20.2172 13.9973 20.9532 12.9566 22.1438L11.3535 23.9766L16.8191 23.9907C21.7645 24 22.3082 23.9953 22.5238 23.925C23.1754 23.7141 23.6863 23.2125 23.9113 22.561C24.0004 22.3032 24.0004 22.1016 24.0004 14.1563C24.0004 6.29534 23.9957 6.00471 23.9113 5.75628C23.7754 5.35784 23.6816 5.20315 23.3816 4.89378C23.1848 4.68753 23.0113 4.56096 22.7676 4.44847L22.4301 4.28909L17.7754 4.27503L13.1207 4.26565L13.1488 4.41565ZM19.3691 9.36096C19.6129 9.50628 19.6973 9.70784 19.7254 10.1953L19.7488 10.6313L20.902 10.65C21.9566 10.6641 22.0691 10.6735 22.2098 10.7578C22.4254 10.8891 22.5473 11.1 22.5473 11.3485C22.5473 11.7094 22.2941 11.9672 21.891 12.0235L21.6754 12.0516L21.5441 12.4125C21.2348 13.2563 20.766 14.1047 20.227 14.7891L19.9691 15.1172L20.166 15.3C20.2785 15.3985 20.677 15.7219 21.052 16.0125C21.427 16.3032 21.7598 16.5985 21.7879 16.6641C21.9332 16.9782 21.802 17.4094 21.5207 17.5547C21.3566 17.6391 21.0379 17.6485 20.8973 17.5735C20.7754 17.5078 19.8988 16.8282 19.4113 16.4203C19.2145 16.2563 19.041 16.125 19.027 16.125C19.0129 16.125 18.8301 16.2703 18.6285 16.4438C18.0988 16.8985 17.3395 17.5078 17.2176 17.5688C17.0723 17.6485 16.7535 17.6391 16.5895 17.5547C16.3082 17.4094 16.177 16.9782 16.3223 16.6641C16.3504 16.5985 16.6645 16.3125 17.0113 16.0313C17.3629 15.7547 17.752 15.4313 17.8738 15.3188L18.0988 15.1172L17.8598 14.8125C17.3957 14.2266 16.8285 13.1813 16.5613 12.4219L16.4301 12.0516L16.2145 12.0235C15.816 11.9672 15.5629 11.7094 15.5629 11.3485C15.5629 11.1 15.6848 10.8891 15.9004 10.7578C16.041 10.6735 16.1535 10.6641 17.1848 10.65L18.3145 10.6313L18.3379 10.1953C18.366 9.71253 18.441 9.5344 18.6848 9.37034C18.8582 9.25784 19.1816 9.25315 19.3691 9.36096Z" fill="#FF9748"/>
<path d="M17.8594 12.0657C17.8594 12.1078 18.0234 12.4735 18.1969 12.8203C18.4219 13.2703 18.9797 14.1188 19.0406 14.1C19.1391 14.0672 19.7109 13.1953 19.9688 12.6797C20.1234 12.3703 20.25 12.0985 20.25 12.0797C20.25 12.061 19.7109 12.0469 19.0547 12.0469C18.3984 12.0469 17.8594 12.0563 17.8594 12.0657Z" fill="#FF9748"/>
<path d="M8.20312 21.2485C8.20312 21.2813 8.23594 21.5625 8.27344 21.8672C8.36719 22.5703 8.54531 22.9875 8.92031 23.3625C9.13594 23.5781 9.54844 23.85 9.58125 23.8031C9.59062 23.7938 10.125 23.2031 10.7766 22.486L11.9578 21.1875H10.0781C8.57812 21.1875 8.20312 21.2016 8.20312 21.2485Z" fill="#FF9748"/>
</g>
<defs>
<clipPath id="clip0_561_1457">
<rect width="24" height="24" fill="white"/>
</clipPath>
</defs>
</svg>
