<svg width="79" height="34" viewBox="0 0 79 34" fill="none" xmlns="http://www.w3.org/2000/svg">
<rect width="79" height="34" rx="6" fill="#FF4C24"/>
<path d="M13.3636 17.48C13.8063 17.48 14.1956 17.4213 14.5316 17.304C14.873 17.1867 15.1583 17.024 15.3876 16.816C15.6223 16.6027 15.7983 16.3493 15.9156 16.056C16.033 15.7627 16.0916 15.44 16.0916 15.088C16.0916 14.3573 15.865 13.7867 15.4116 13.376C14.9636 12.9653 14.281 12.76 13.3636 12.76H11.5236V17.48H13.3636ZM13.3636 11.536C14.089 11.536 14.7183 11.6213 15.2516 11.792C15.7903 11.9573 16.2356 12.1947 16.5876 12.504C16.9396 12.8133 17.201 13.1867 17.3716 13.624C17.5476 14.0613 17.6356 14.5493 17.6356 15.088C17.6356 15.6213 17.5423 16.1093 17.3556 16.552C17.169 16.9947 16.8943 17.376 16.5316 17.696C16.1743 18.016 15.729 18.2667 15.1956 18.448C14.6676 18.624 14.057 18.712 13.3636 18.712H11.5236V23H9.97963V11.536H13.3636ZM20.4488 16.52C20.7048 15.9653 21.0194 15.5333 21.3928 15.224C21.7661 14.9093 22.2221 14.752 22.7608 14.752C22.9314 14.752 23.0941 14.7707 23.2488 14.808C23.4088 14.8453 23.5501 14.904 23.6728 14.984L23.5688 16.048C23.5368 16.1813 23.4568 16.248 23.3288 16.248C23.2541 16.248 23.1448 16.232 23.0008 16.2C22.8568 16.168 22.6941 16.152 22.5128 16.152C22.2568 16.152 22.0274 16.1893 21.8248 16.264C21.6274 16.3387 21.4488 16.4507 21.2888 16.6C21.1341 16.744 20.9928 16.9253 20.8648 17.144C20.7421 17.3573 20.6301 17.6027 20.5288 17.88V23H19.0968V14.896H19.9128C20.0674 14.896 20.1741 14.9253 20.2328 14.984C20.2914 15.0427 20.3314 15.144 20.3528 15.288L20.4488 16.52ZM30.0208 18.064C30.0208 17.7333 29.9728 17.432 29.8768 17.16C29.7861 16.8827 29.6501 16.6453 29.4688 16.448C29.2928 16.2453 29.0768 16.0907 28.8208 15.984C28.5648 15.872 28.2741 15.816 27.9488 15.816C27.2661 15.816 26.7248 16.016 26.3248 16.416C25.9301 16.8107 25.6848 17.36 25.5888 18.064H30.0208ZM31.1728 21.864C30.9968 22.0773 30.7861 22.264 30.5408 22.424C30.2954 22.5787 30.0314 22.7067 29.7488 22.808C29.4714 22.9093 29.1834 22.984 28.8848 23.032C28.5861 23.0853 28.2901 23.112 27.9968 23.112C27.4368 23.112 26.9194 23.0187 26.4448 22.832C25.9754 22.64 25.5674 22.3627 25.2208 22C24.8794 21.632 24.6128 21.1787 24.4208 20.64C24.2288 20.1013 24.1328 19.4827 24.1328 18.784C24.1328 18.2187 24.2181 17.6907 24.3888 17.2C24.5648 16.7093 24.8154 16.2853 25.1408 15.928C25.4661 15.5653 25.8634 15.2827 26.3328 15.08C26.8021 14.872 27.3301 14.768 27.9168 14.768C28.4021 14.768 28.8501 14.8507 29.2608 15.016C29.6768 15.176 30.0341 15.4107 30.3328 15.72C30.6368 16.024 30.8741 16.4027 31.0448 16.856C31.2154 17.304 31.3008 17.816 31.3008 18.392C31.3008 18.616 31.2768 18.7653 31.2288 18.84C31.1808 18.9147 31.0901 18.952 30.9568 18.952H25.5408C25.5568 19.464 25.6261 19.9093 25.7488 20.288C25.8768 20.6667 26.0528 20.984 26.2768 21.24C26.5008 21.4907 26.7674 21.68 27.0768 21.808C27.3861 21.9307 27.7328 21.992 28.1168 21.992C28.4741 21.992 28.7808 21.952 29.0368 21.872C29.2981 21.7867 29.5221 21.696 29.7088 21.6C29.8954 21.504 30.0501 21.416 30.1728 21.336C30.3008 21.2507 30.4101 21.208 30.5008 21.208C30.6181 21.208 30.7088 21.2533 30.7728 21.344L31.1728 21.864ZM33.0499 23V14.896H33.9059C34.1085 14.896 34.2339 14.9947 34.2819 15.192L34.3859 16.024C34.6845 15.656 35.0205 15.3547 35.3939 15.12C35.7672 14.8853 36.1992 14.768 36.6899 14.768C37.2339 14.768 37.6739 14.92 38.0099 15.224C38.3512 15.528 38.5965 15.9387 38.7459 16.456C38.8632 16.1627 39.0125 15.9093 39.1939 15.696C39.3805 15.4827 39.5885 15.3067 39.8179 15.168C40.0472 15.0293 40.2899 14.928 40.5459 14.864C40.8072 14.8 41.0712 14.768 41.3379 14.768C41.7645 14.768 42.1432 14.8373 42.4739 14.976C42.8099 15.1093 43.0925 15.3067 43.3219 15.568C43.5565 15.8293 43.7352 16.152 43.8579 16.536C43.9805 16.9147 44.0419 17.3493 44.0419 17.84V23H42.6099V17.84C42.6099 17.2053 42.4712 16.7253 42.1939 16.4C41.9165 16.0693 41.5165 15.904 40.9939 15.904C40.7592 15.904 40.5352 15.9467 40.3219 16.032C40.1139 16.112 39.9299 16.232 39.7699 16.392C39.6099 16.552 39.4819 16.7547 39.3859 17C39.2952 17.24 39.2499 17.52 39.2499 17.84V23H37.8179V17.84C37.8179 17.1893 37.6872 16.704 37.4259 16.384C37.1645 16.064 36.7832 15.904 36.2819 15.904C35.9299 15.904 35.6045 16 35.3059 16.192C35.0072 16.3787 34.7325 16.6347 34.4819 16.96V23H33.0499ZM47.7101 14.896V23H46.2861V14.896H47.7101ZM48.0141 12.352C48.0141 12.4907 47.9848 12.6213 47.9261 12.744C47.8728 12.8613 47.7981 12.968 47.7021 13.064C47.6115 13.1547 47.5021 13.2267 47.3741 13.28C47.2515 13.3333 47.1208 13.36 46.9821 13.36C46.8435 13.36 46.7128 13.3333 46.5901 13.28C46.4728 13.2267 46.3688 13.1547 46.2781 13.064C46.1875 12.968 46.1155 12.8613 46.0621 12.744C46.0088 12.6213 45.9821 12.4907 45.9821 12.352C45.9821 12.2133 46.0088 12.0827 46.0621 11.96C46.1155 11.832 46.1875 11.7227 46.2781 11.632C46.3688 11.536 46.4728 11.4613 46.5901 11.408C46.7128 11.3547 46.8435 11.328 46.9821 11.328C47.1208 11.328 47.2515 11.3547 47.3741 11.408C47.5021 11.4613 47.6115 11.536 47.7021 11.632C47.7981 11.7227 47.8728 11.832 47.9261 11.96C47.9848 12.0827 48.0141 12.2133 48.0141 12.352ZM56.7139 14.896V23H55.8659C55.6632 23 55.5352 22.9013 55.4819 22.704L55.3699 21.832C55.0179 22.2213 54.6232 22.536 54.1859 22.776C53.7485 23.0107 53.2472 23.128 52.6819 23.128C52.2392 23.128 51.8472 23.056 51.5059 22.912C51.1699 22.7627 50.8872 22.5547 50.6579 22.288C50.4285 22.0213 50.2552 21.6987 50.1379 21.32C50.0259 20.9413 49.9699 20.5227 49.9699 20.064V14.896H51.3939V20.064C51.3939 20.6773 51.5325 21.152 51.8099 21.488C52.0925 21.824 52.5219 21.992 53.0979 21.992C53.5192 21.992 53.9112 21.8933 54.2739 21.696C54.6419 21.4933 54.9805 21.216 55.2899 20.864V14.896H56.7139ZM58.9718 23V14.896H59.8278C60.0304 14.896 60.1558 14.9947 60.2038 15.192L60.3078 16.024C60.6064 15.656 60.9424 15.3547 61.3158 15.12C61.6891 14.8853 62.1211 14.768 62.6118 14.768C63.1558 14.768 63.5958 14.92 63.9318 15.224C64.2731 15.528 64.5184 15.9387 64.6678 16.456C64.7851 16.1627 64.9344 15.9093 65.1158 15.696C65.3024 15.4827 65.5104 15.3067 65.7398 15.168C65.9691 15.0293 66.2118 14.928 66.4678 14.864C66.7291 14.8 66.9931 14.768 67.2598 14.768C67.6864 14.768 68.0651 14.8373 68.3958 14.976C68.7318 15.1093 69.0144 15.3067 69.2438 15.568C69.4784 15.8293 69.6571 16.152 69.7798 16.536C69.9024 16.9147 69.9638 17.3493 69.9638 17.84V23H68.5318V17.84C68.5318 17.2053 68.3931 16.7253 68.1158 16.4C67.8384 16.0693 67.4384 15.904 66.9158 15.904C66.6811 15.904 66.4571 15.9467 66.2438 16.032C66.0358 16.112 65.8518 16.232 65.6918 16.392C65.5318 16.552 65.4038 16.7547 65.3078 17C65.2171 17.24 65.1718 17.52 65.1718 17.84V23H63.7398V17.84C63.7398 17.1893 63.6091 16.704 63.3478 16.384C63.0864 16.064 62.7051 15.904 62.2038 15.904C61.8518 15.904 61.5264 16 61.2278 16.192C60.9291 16.3787 60.6544 16.6347 60.4038 16.96V23H58.9718Z" fill="white"/>
</svg>
