<svg width="79" height="34" viewBox="0 0 79 34" fill="none" xmlns="http://www.w3.org/2000/svg">
<rect width="79" height="34" rx="6" fill="#FFE36C"/>
<path d="M16.0155 13.328C15.9675 13.408 15.9142 13.4693 15.8555 13.512C15.8022 13.5493 15.7355 13.568 15.6555 13.568C15.5648 13.568 15.4582 13.5227 15.3355 13.432C15.2128 13.3413 15.0582 13.2427 14.8715 13.136C14.6902 13.024 14.4688 12.9227 14.2075 12.832C13.9515 12.7413 13.6395 12.696 13.2715 12.696C12.9248 12.696 12.6182 12.744 12.3515 12.84C12.0902 12.9307 11.8688 13.056 11.6875 13.216C11.5115 13.376 11.3782 13.5653 11.2875 13.784C11.1968 13.9973 11.1515 14.2293 11.1515 14.48C11.1515 14.8 11.2288 15.0667 11.3835 15.28C11.5435 15.488 11.7515 15.6667 12.0075 15.816C12.2688 15.9653 12.5622 16.096 12.8875 16.208C13.2182 16.3147 13.5542 16.4267 13.8955 16.544C14.2422 16.6613 14.5782 16.7947 14.9035 16.944C15.2342 17.088 15.5275 17.272 15.7835 17.496C16.0448 17.72 16.2528 17.9947 16.4075 18.32C16.5675 18.6453 16.6475 19.0453 16.6475 19.52C16.6475 20.0213 16.5622 20.4933 16.3915 20.936C16.2208 21.3733 15.9702 21.7547 15.6395 22.08C15.3142 22.4053 14.9115 22.6613 14.4315 22.848C13.9568 23.0347 13.4155 23.128 12.8075 23.128C12.0608 23.128 11.3835 22.9947 10.7755 22.728C10.1675 22.456 9.6475 22.0907 9.2155 21.632L9.6635 20.896C9.70617 20.8373 9.75683 20.7893 9.8155 20.752C9.8795 20.7093 9.94883 20.688 10.0235 20.688C10.0928 20.688 10.1702 20.7173 10.2555 20.776C10.3462 20.8293 10.4475 20.8987 10.5595 20.984C10.6715 21.0693 10.7995 21.1627 10.9435 21.264C11.0875 21.3653 11.2502 21.4587 11.4315 21.544C11.6182 21.6293 11.8288 21.7013 12.0635 21.76C12.2982 21.8133 12.5622 21.84 12.8555 21.84C13.2235 21.84 13.5515 21.7893 13.8395 21.688C14.1275 21.5867 14.3702 21.4453 14.5675 21.264C14.7702 21.0773 14.9248 20.856 15.0315 20.6C15.1382 20.344 15.1915 20.0587 15.1915 19.744C15.1915 19.3973 15.1115 19.1147 14.9515 18.896C14.7968 18.672 14.5915 18.4853 14.3355 18.336C14.0795 18.1867 13.7862 18.0613 13.4555 17.96C13.1248 17.8533 12.7888 17.7467 12.4475 17.64C12.1062 17.528 11.7702 17.4 11.4395 17.256C11.1088 17.112 10.8155 16.9253 10.5595 16.696C10.3035 16.4667 10.0955 16.1813 9.9355 15.84C9.78083 15.4933 9.7035 15.0667 9.7035 14.56C9.7035 14.1547 9.78083 13.7627 9.9355 13.384C10.0955 13.0053 10.3248 12.6693 10.6235 12.376C10.9275 12.0827 11.2982 11.848 11.7355 11.672C12.1782 11.496 12.6848 11.408 13.2555 11.408C13.8955 11.408 14.4768 11.5093 14.9995 11.712C15.5275 11.9147 15.9915 12.208 16.3915 12.592L16.0155 13.328ZM20.6316 23.128C19.9916 23.128 19.4983 22.9493 19.1516 22.592C18.8103 22.2347 18.6396 21.72 18.6396 21.048V16.088H17.6636C17.5783 16.088 17.5063 16.064 17.4476 16.016C17.389 15.9627 17.3596 15.8827 17.3596 15.776V15.208L18.6876 15.04L19.0156 12.536C19.0316 12.456 19.0663 12.392 19.1196 12.344C19.1783 12.2907 19.253 12.264 19.3436 12.264H20.0636V15.056H22.4076V16.088H20.0636V20.952C20.0636 21.2933 20.1463 21.5467 20.3116 21.712C20.477 21.8773 20.6903 21.96 20.9516 21.96C21.101 21.96 21.229 21.9413 21.3356 21.904C21.4476 21.8613 21.5436 21.816 21.6236 21.768C21.7036 21.72 21.7703 21.6773 21.8236 21.64C21.8823 21.5973 21.933 21.576 21.9756 21.576C22.0503 21.576 22.117 21.6213 22.1756 21.712L22.5916 22.392C22.3463 22.6213 22.0503 22.8027 21.7036 22.936C21.357 23.064 20.9996 23.128 20.6316 23.128ZM28.27 19.352C27.614 19.3733 27.054 19.4267 26.59 19.512C26.1313 19.592 25.7553 19.6987 25.462 19.832C25.174 19.9653 24.9633 20.1227 24.83 20.304C24.702 20.4853 24.638 20.688 24.638 20.912C24.638 21.1253 24.6727 21.3093 24.742 21.464C24.8113 21.6187 24.9047 21.7467 25.022 21.848C25.1447 21.944 25.286 22.016 25.446 22.064C25.6113 22.1067 25.7873 22.128 25.974 22.128C26.2247 22.128 26.454 22.104 26.662 22.056C26.87 22.0027 27.0647 21.928 27.246 21.832C27.4327 21.736 27.6087 21.6213 27.774 21.488C27.9447 21.3547 28.11 21.2027 28.27 21.032V19.352ZM23.67 16.04C24.118 15.608 24.6007 15.2853 25.118 15.072C25.6353 14.8587 26.2087 14.752 26.838 14.752C27.2913 14.752 27.694 14.8267 28.046 14.976C28.398 15.1253 28.694 15.3333 28.934 15.6C29.174 15.8667 29.3553 16.1893 29.478 16.568C29.6007 16.9467 29.662 17.3627 29.662 17.816V23H29.03C28.8913 23 28.7847 22.9787 28.71 22.936C28.6353 22.888 28.5767 22.7973 28.534 22.664L28.374 21.896C28.1607 22.0933 27.9527 22.2693 27.75 22.424C27.5473 22.5733 27.334 22.7013 27.11 22.808C26.886 22.9093 26.646 22.9867 26.39 23.04C26.1393 23.0987 25.8593 23.128 25.55 23.128C25.2353 23.128 24.9393 23.0853 24.662 23C24.3847 22.9093 24.142 22.776 23.934 22.6C23.7313 22.424 23.5687 22.2027 23.446 21.936C23.3287 21.664 23.27 21.344 23.27 20.976C23.27 20.656 23.358 20.3493 23.534 20.056C23.71 19.7573 23.9953 19.4933 24.39 19.264C24.7847 19.0347 25.2993 18.848 25.934 18.704C26.5687 18.5547 27.3473 18.4693 28.27 18.448V17.816C28.27 17.1867 28.134 16.712 27.862 16.392C27.59 16.0667 27.1927 15.904 26.67 15.904C26.318 15.904 26.022 15.9493 25.782 16.04C25.5473 16.1253 25.342 16.224 25.166 16.336C24.9953 16.4427 24.846 16.5413 24.718 16.632C24.5953 16.7173 24.4727 16.76 24.35 16.76C24.254 16.76 24.1713 16.736 24.102 16.688C24.0327 16.6347 23.974 16.5707 23.926 16.496L23.67 16.04ZM33.1751 16.072C33.3511 15.8747 33.5378 15.696 33.7351 15.536C33.9325 15.376 34.1405 15.24 34.3591 15.128C34.5831 15.0107 34.8178 14.9227 35.0631 14.864C35.3138 14.8 35.5831 14.768 35.8711 14.768C36.3138 14.768 36.7031 14.8427 37.0391 14.992C37.3805 15.136 37.6631 15.344 37.8871 15.616C38.1165 15.8827 38.2898 16.2053 38.4071 16.584C38.5245 16.9627 38.5831 17.3813 38.5831 17.84V23H37.1511V17.84C37.1511 17.2267 37.0098 16.752 36.7271 16.416C36.4498 16.0747 36.0258 15.904 35.4551 15.904C35.0338 15.904 34.6391 16.0053 34.2711 16.208C33.9085 16.4107 33.5725 16.6853 33.2631 17.032V23H31.8311V14.896H32.6871C32.8898 14.896 33.0151 14.9947 33.0631 15.192L33.1751 16.072ZM46.033 16.824C45.7663 16.4667 45.4783 16.2187 45.169 16.08C44.8597 15.936 44.513 15.864 44.129 15.864C43.377 15.864 42.7983 16.1333 42.393 16.672C41.9877 17.2107 41.785 17.9787 41.785 18.976C41.785 19.504 41.8303 19.9573 41.921 20.336C42.0117 20.7093 42.145 21.0187 42.321 21.264C42.497 21.504 42.713 21.68 42.969 21.792C43.225 21.904 43.5157 21.96 43.841 21.96C44.3103 21.96 44.7183 21.8533 45.065 21.64C45.417 21.4267 45.7397 21.1253 46.033 20.736V16.824ZM47.457 11.216V23H46.609C46.4063 23 46.2783 22.9013 46.225 22.704L46.097 21.72C45.7503 22.136 45.3557 22.472 44.913 22.728C44.4703 22.984 43.9583 23.112 43.377 23.112C42.913 23.112 42.4917 23.024 42.113 22.848C41.7343 22.6667 41.4117 22.4027 41.145 22.056C40.8783 21.7093 40.673 21.2773 40.529 20.76C40.385 20.2427 40.313 19.648 40.313 18.976C40.313 18.3787 40.393 17.824 40.553 17.312C40.713 16.7947 40.9423 16.3467 41.241 15.968C41.5397 15.5893 41.905 15.2933 42.337 15.08C42.7743 14.8613 43.265 14.752 43.809 14.752C44.305 14.752 44.729 14.8373 45.081 15.008C45.4383 15.1733 45.7557 15.4053 46.033 15.704V11.216H47.457ZM54.0981 19.352C53.4421 19.3733 52.8821 19.4267 52.4181 19.512C51.9595 19.592 51.5835 19.6987 51.2901 19.832C51.0021 19.9653 50.7915 20.1227 50.6581 20.304C50.5301 20.4853 50.4661 20.688 50.4661 20.912C50.4661 21.1253 50.5008 21.3093 50.5701 21.464C50.6395 21.6187 50.7328 21.7467 50.8501 21.848C50.9728 21.944 51.1141 22.016 51.2741 22.064C51.4395 22.1067 51.6155 22.128 51.8021 22.128C52.0528 22.128 52.2821 22.104 52.4901 22.056C52.6981 22.0027 52.8928 21.928 53.0741 21.832C53.2608 21.736 53.4368 21.6213 53.6021 21.488C53.7728 21.3547 53.9381 21.2027 54.0981 21.032V19.352ZM49.4981 16.04C49.9461 15.608 50.4288 15.2853 50.9461 15.072C51.4635 14.8587 52.0368 14.752 52.6661 14.752C53.1195 14.752 53.5221 14.8267 53.8741 14.976C54.2261 15.1253 54.5221 15.3333 54.7621 15.6C55.0021 15.8667 55.1835 16.1893 55.3061 16.568C55.4288 16.9467 55.4901 17.3627 55.4901 17.816V23H54.8581C54.7195 23 54.6128 22.9787 54.5381 22.936C54.4635 22.888 54.4048 22.7973 54.3621 22.664L54.2021 21.896C53.9888 22.0933 53.7808 22.2693 53.5781 22.424C53.3755 22.5733 53.1621 22.7013 52.9381 22.808C52.7141 22.9093 52.4741 22.9867 52.2181 23.04C51.9675 23.0987 51.6875 23.128 51.3781 23.128C51.0635 23.128 50.7675 23.0853 50.4901 23C50.2128 22.9093 49.9701 22.776 49.7621 22.6C49.5595 22.424 49.3968 22.2027 49.2741 21.936C49.1568 21.664 49.0981 21.344 49.0981 20.976C49.0981 20.656 49.1861 20.3493 49.3621 20.056C49.5381 19.7573 49.8235 19.4933 50.2181 19.264C50.6128 19.0347 51.1275 18.848 51.7621 18.704C52.3968 18.5547 53.1755 18.4693 54.0981 18.448V17.816C54.0981 17.1867 53.9621 16.712 53.6901 16.392C53.4181 16.0667 53.0208 15.904 52.4981 15.904C52.1461 15.904 51.8501 15.9493 51.6101 16.04C51.3755 16.1253 51.1701 16.224 50.9941 16.336C50.8235 16.4427 50.6741 16.5413 50.5461 16.632C50.4235 16.7173 50.3008 16.76 50.1781 16.76C50.0821 16.76 49.9995 16.736 49.9301 16.688C49.8608 16.6347 49.8021 16.5707 49.7541 16.496L49.4981 16.04ZM59.0113 16.52C59.2673 15.9653 59.5819 15.5333 59.9553 15.224C60.3286 14.9093 60.7846 14.752 61.3233 14.752C61.4939 14.752 61.6566 14.7707 61.8113 14.808C61.9713 14.8453 62.1126 14.904 62.2353 14.984L62.1313 16.048C62.0993 16.1813 62.0193 16.248 61.8913 16.248C61.8166 16.248 61.7073 16.232 61.5633 16.2C61.4193 16.168 61.2566 16.152 61.0753 16.152C60.8193 16.152 60.5899 16.1893 60.3873 16.264C60.1899 16.3387 60.0113 16.4507 59.8513 16.6C59.6966 16.744 59.5553 16.9253 59.4273 17.144C59.3046 17.3573 59.1926 17.6027 59.0913 17.88V23H57.6593V14.896H58.4753C58.6299 14.896 58.7366 14.9253 58.7953 14.984C58.8539 15.0427 58.8939 15.144 58.9153 15.288L59.0113 16.52ZM68.4549 16.824C68.1882 16.4667 67.9002 16.2187 67.5909 16.08C67.2815 15.936 66.9349 15.864 66.5509 15.864C65.7989 15.864 65.2202 16.1333 64.8149 16.672C64.4095 17.2107 64.2069 17.9787 64.2069 18.976C64.2069 19.504 64.2522 19.9573 64.3429 20.336C64.4335 20.7093 64.5669 21.0187 64.7429 21.264C64.9189 21.504 65.1349 21.68 65.3909 21.792C65.6469 21.904 65.9375 21.96 66.2629 21.96C66.7322 21.96 67.1402 21.8533 67.4869 21.64C67.8389 21.4267 68.1615 21.1253 68.4549 20.736V16.824ZM69.8789 11.216V23H69.0309C68.8282 23 68.7002 22.9013 68.6469 22.704L68.5189 21.72C68.1722 22.136 67.7775 22.472 67.3349 22.728C66.8922 22.984 66.3802 23.112 65.7989 23.112C65.3349 23.112 64.9135 23.024 64.5349 22.848C64.1562 22.6667 63.8335 22.4027 63.5669 22.056C63.3002 21.7093 63.0949 21.2773 62.9509 20.76C62.8069 20.2427 62.7349 19.648 62.7349 18.976C62.7349 18.3787 62.8149 17.824 62.9749 17.312C63.1349 16.7947 63.3642 16.3467 63.6629 15.968C63.9615 15.5893 64.3269 15.2933 64.7589 15.08C65.1962 14.8613 65.6869 14.752 66.2309 14.752C66.7269 14.752 67.1509 14.8373 67.5029 15.008C67.8602 15.1733 68.1775 15.4053 68.4549 15.704V11.216H69.8789Z" fill="#010101"/>
</svg>
